<svg version="1.1" viewBox="0.0 0.0 531.496062992126 462.0472440944882" fill="none" stroke="none" stroke-linecap="square" stroke-miterlimit="10" xmlns:xlink="http://www.w3.org/1999/xlink" xmlns="http://www.w3.org/2000/svg"><clipPath id="p.0"><path d="m0 0l531.49603 0l0 462.04724l-531.49603 0l0 -462.04724z" clip-rule="nonzero"/></clipPath><g clip-path="url(#p.0)"><path fill="#000000" fill-opacity="0.0" d="m0 0l531.49603 0l0 462.04724l-531.49603 0z" fill-rule="evenodd"/><path fill="#cfe2f3" d="m117.637794 109.13386l58.110237 0l0 147.40158l-58.110237 0z" fill-rule="evenodd"/><path stroke="#000000" stroke-width="1.0" stroke-linejoin="round" stroke-linecap="butt" d="m117.637794 109.13386l58.110237 0l0 147.40158l-58.110237 0z" fill-rule="evenodd"/><path fill="#000000" d="m139.74565 163.18715l3.46875 0l0 9.3125q0 2.21875 0.140625 2.875q0.21875 1.046875 1.046875 1.6875q0.84375 0.640625 2.296875 0.640625q1.484375 0 2.234375 -0.59375q0.75 -0.609375 0.890625 -1.484375q0.15625 -0.890625 0.15625 -2.921875l0 -9.515625l3.46875 0l0 9.03125q0 3.09375 -0.28125 4.375q-0.28125 1.265625 -1.046875 2.15625q-0.75 0.875 -2.015625 1.40625q-1.265625 0.515625 -3.296875 0.515625q-2.46875 0 -3.734375 -0.5625q-1.265625 -0.578125 -2.015625 -1.484375q-0.734375 -0.90625 -0.96875 -1.90625q-0.34375 -1.484375 -0.34375 -4.359375l0 -9.171875z" fill-rule="nonzero"/><path fill="#cfe2f3" d="m149.6378 300.8819l58.11023 0l0 147.40158l-58.11023 0z" fill-rule="evenodd"/><path stroke="#000000" stroke-width="1.0" stroke-linejoin="round" stroke-linecap="butt" d="m149.6378 300.8819l58.11023 0l0 147.40158l-58.11023 0z" fill-rule="evenodd"/><path fill="#000000" d="m171.74565 354.93518l3.46875 0l0 9.3125q0 2.21875 0.140625 2.875q0.21875 1.046875 1.046875 1.6875q0.84375 0.640625 2.296875 0.640625q1.484375 0 2.234375 -0.59375q0.75 -0.609375 0.890625 -1.484375q0.15625 -0.890625 0.15625 -2.921875l0 -9.515625l3.46875 0l0 9.03125q0 3.09375 -0.28125 4.375q-0.28125 1.265625 -1.046875 2.15625q-0.75 0.875 -2.015625 1.40625q-1.265625 0.515625 -3.296875 0.515625q-2.46875 0 -3.734375 -0.5625q-1.265625 -0.578125 -2.015625 -1.484375q-0.734375 -0.90625 -0.96875 -1.90625q-0.34375 -1.484375 -0.34375 -4.359375l0 -9.171875z" fill-rule="nonzero"/><path fill="#cfe2f3" d="m72.28346 31.181103l58.110245 0l0 41.10236l-58.110245 0z" fill-rule="evenodd"/><path stroke="#000000" stroke-width="1.0" stroke-linejoin="round" stroke-linecap="butt" d="m72.28346 31.181103l58.110245 0l0 41.10236l-58.110245 0z" fill-rule="evenodd"/><path fill="#000000" d="m82.75221 58.652283l0 -13.359375l9.65625 0l0 1.578125l-7.875 0l0 4.09375l7.375 0l0 1.5625l-7.375 0l0 4.546875l8.1875 0l0 1.578125l-9.96875 0zm12.412323 0l0 -13.359375l5.046875 0q1.328125 0 2.03125 0.125q0.96875 0.171875 1.640625 0.640625q0.671875 0.453125 1.078125 1.28125q0.40625 0.828125 0.40625 1.828125q0 1.703125 -1.09375 2.890625q-1.078125 1.171875 -3.921875 1.171875l-3.421875 0l0 5.421875l-1.765625 0zm1.765625 -7.0l3.453125 0q1.71875 0 2.4375 -0.640625q0.71875 -0.640625 0.71875 -1.796875q0 -0.84375 -0.421875 -1.4375q-0.421875 -0.59375 -1.125 -0.78125q-0.4375 -0.125 -1.640625 -0.125l-3.421875 0l0 4.78125zm10.709198 7.0l0 -13.359375l5.921875 0q1.78125 0 2.703125 0.359375q0.9375 0.359375 1.484375 1.28125q0.5625 0.90625 0.5625 2.015625q0 1.40625 -0.921875 2.390625q-0.921875 0.96875 -2.84375 1.234375q0.703125 0.34375 1.078125 0.671875q0.765625 0.703125 1.453125 1.765625l2.328125 3.640625l-2.21875 0l-1.765625 -2.78125q-0.78125 -1.203125 -1.28125 -1.828125q-0.5 -0.640625 -0.90625 -0.890625q-0.390625 -0.265625 -0.796875 -0.359375q-0.296875 -0.078125 -0.984375 -0.078125l-2.046875 0l0 5.9375l-1.765625 0zm1.765625 -7.453125l3.796875 0q1.21875 0 1.890625 -0.25q0.6875 -0.265625 1.046875 -0.8125q0.359375 -0.546875 0.359375 -1.1875q0 -0.953125 -0.6875 -1.5625q-0.6875 -0.609375 -2.1875 -0.609375l-4.21875 0l0 4.421875z" fill-rule="nonzero"/><path fill="#cfe2f3" d="m254.74016 31.181103l68.913376 0l0 41.10236l-68.913376 0z" fill-rule="evenodd"/><path stroke="#000000" stroke-width="1.0" stroke-linejoin="round" stroke-linecap="butt" d="m254.74016 31.181103l68.913376 0l0 41.10236l-68.913376 0z" fill-rule="evenodd"/><path fill="#000000" d="m265.2089 58.652283l0 -13.359375l9.65625 0l0 1.578125l-7.875 0l0 4.09375l7.375 0l0 1.5625l-7.375 0l0 4.546875l8.1875 0l0 1.578125l-9.96875 0zm12.412323 0l0 -13.359375l5.046875 0q1.328125 0 2.03125 0.125q0.96875 0.171875 1.640625 0.640625q0.671875 0.453125 1.078125 1.28125q0.40625 0.828125 0.40625 1.828125q0 1.703125 -1.09375 2.890625q-1.078125 1.171875 -3.921875 1.171875l-3.421875 0l0 5.421875l-1.765625 0zm1.765625 -7.0l3.453125 0q1.71875 0 2.4375 -0.640625q0.71875 -0.640625 0.71875 -1.796875q0 -0.84375 -0.421875 -1.4375q-0.421875 -0.59375 -1.125 -0.78125q-0.4375 -0.125 -1.640625 -0.125l-3.421875 0l0 4.78125zm10.709198 7.0l0 -13.359375l5.921875 0q1.78125 0 2.703125 0.359375q0.9375 0.359375 1.484375 1.28125q0.5625 0.90625 0.5625 2.015625q0 1.40625 -0.921875 2.390625q-0.921875 0.96875 -2.84375 1.234375q0.703125 0.34375 1.078125 0.671875q0.765625 0.703125 1.453125 1.765625l2.328125 3.640625l-2.21875 0l-1.765625 -2.78125q-0.78125 -1.203125 -1.28125 -1.828125q-0.5 -0.640625 -0.90625 -0.890625q-0.390625 -0.265625 -0.796875 -0.359375q-0.296875 -0.078125 -0.984375 -0.078125l-2.046875 0l0 5.9375l-1.765625 0zm1.765625 -7.453125l3.796875 0q1.21875 0 1.890625 -0.25q0.6875 -0.265625 1.046875 -0.8125q0.359375 -0.546875 0.359375 -1.1875q0 -0.953125 -0.6875 -1.5625q-0.6875 -0.609375 -2.1875 -0.609375l-4.21875 0l0 4.421875zm12.410461 1.171875l-1.6875 0l3.21875 -7.296875l1.328125 0l3.234375 7.296875l-1.65625 0l-2.25 -5.4375l-2.1875 5.4375z" fill-rule="nonzero"/><path fill="#000000" fill-opacity="0.0" d="m38.267715 41.102364l364.25195 0" fill-rule="evenodd"/><path stroke="#000000" stroke-width="1.0" stroke-linejoin="round" stroke-linecap="butt" d="m38.267715 41.102364l364.25195 0" fill-rule="evenodd"/><path fill="#000000" fill-opacity="0.0" d="m38.267715 57.102364l364.25195 0" fill-rule="evenodd"/><path stroke="#000000" stroke-width="1.0" stroke-linejoin="round" stroke-linecap="butt" d="m38.267715 57.102364l364.25195 0" fill-rule="evenodd"/><path fill="#000000" fill-opacity="0.0" d="m144.55118 38.677166l2.141739 86.456696" fill-rule="evenodd"/><path stroke="#000000" stroke-width="1.0" stroke-linejoin="round" stroke-linecap="butt" d="m144.55118 38.677166l2.141739 86.456696" fill-rule="evenodd"/><path fill="#cfe2f3" d="m154.99213 45.85827l26.929138 0l0 26.92913l-26.929138 0z" fill-rule="evenodd"/><path stroke="#000000" stroke-width="1.0" stroke-linejoin="round" stroke-linecap="butt" d="m154.99213 45.85827l26.929138 0l0 26.92913l-26.929138 0z" fill-rule="evenodd"/><path fill="#000000" d="m164.07025 66.242836l5.171875 -6.953129l-4.5625 -6.40625l2.109375 0l2.421875 3.4375q0.75 1.0625 1.078125 1.625q0.4375 -0.71875 1.046875 -1.515625l2.6875 -3.546875l1.921875 0l-4.6875 6.296875l5.0625 7.062504l-2.1875 0l-3.359375 -4.765629q-0.28125 -0.40625 -0.59375 -0.890625q-0.4375 0.734375 -0.625 1.0l-3.359375 4.656254l-2.125 0z" fill-rule="nonzero"/><path fill="#cfe2f3" d="m202.99213 45.85827l26.929138 0l0 26.92913l-26.929138 0z" fill-rule="evenodd"/><path stroke="#000000" stroke-width="1.0" stroke-linejoin="round" stroke-linecap="butt" d="m202.99213 45.85827l26.929138 0l0 26.92913l-26.929138 0z" fill-rule="evenodd"/><path fill="#000000" d="m212.07025 66.242836l5.171875 -6.953129l-4.5625 -6.40625l2.109375 0l2.421875 3.4375q0.75 1.0625 1.078125 1.625q0.4375 -0.71875 1.046875 -1.515625l2.6875 -3.546875l1.921875 0l-4.6875 6.296875l5.0625 7.062504l-2.1875 0l-3.359375 -4.765629q-0.28125 -0.40625 -0.59375 -0.890625q-0.4375 0.734375 -0.625 1.0l-3.359375 4.656254l-2.125 0z" fill-rule="nonzero"/><path fill="#000000" fill-opacity="0.0" d="m194.99213 59.307087l3.433075 273.76376" fill-rule="evenodd"/><path stroke="#000000" stroke-width="1.0" stroke-linejoin="round" stroke-linecap="butt" d="m194.99213 59.307087l3.433075 273.76376" fill-rule="evenodd"/></g></svg>